<?xml version="1.0" standalone="no"?>
<!DOCTYPE svg PUBLIC "-//W3C//DTD SVG 20010904//EN"
 "http://www.w3.org/TR/2001/REC-SVG-20010904/DTD/svg10.dtd">
<svg version="1.0" xmlns="http://www.w3.org/2000/svg"
 width="180.000000pt" height="180.000000pt" viewBox="0 0 180.000000 180.000000"
 preserveAspectRatio="xMidYMid meet">
<metadata>
Created by potrace 1.14, written by Peter Selinger 2001-2017
</metadata>
<g transform="translate(0.000000,180.000000) scale(0.100000,-0.100000)"
fill="#000000" stroke="none">
<path d="M105 1781 c-81 -37 -105 -90 -105 -231 0 -97 1 -100 23 -100 24 0 48
-52 328 -697 63 -144 118 -261 122 -260 5 1 60 142 123 312 62 171 127 346
143 390 16 44 44 119 61 168 l32 87 54 0 c30 0 54 -3 54 -6 0 -6 -43 -106 -94
-219 -18 -38 -113 -251 -211 -472 -130 -292 -184 -403 -195 -403 -17 0 -43 56
-321 681 l-114 256 -3 -561 c-2 -369 1 -573 8 -597 14 -51 47 -88 94 -110 39
-18 82 -19 796 -19 711 0 757 1 795 19 83 38 105 89 105 240 0 104 -1 110 -21
113 -18 2 -36 43 -117 256 l-95 252 -176 -2 -176 -3 -37 -115 c-20 -63 -56
-177 -79 -252 l-43 -138 -53 0 c-29 0 -53 2 -53 5 0 6 65 177 266 700 l143
370 48 3 48 3 172 -448 172 -448 1 548 c0 471 -2 553 -15 584 -21 50 -42 72
-90 94 -38 18 -84 19 -795 19 -711 0 -757 -1 -795 -19z"/>
<path d="M1365 1357 c-3 -9 -8 -25 -11 -34 -28 -84 -124 -397 -124 -404 0 -5
70 -9 160 -9 88 0 160 3 160 7 0 14 -162 438 -171 447 -5 6 -11 3 -14 -7z"/>
</g>
</svg>
